<svg xmlns="http://www.w3.org/2000/svg" viewBox="0 0 160 160" role="img" aria-label="Java Maven">
  <rect width="160" height="160" rx="28" fill="#fff4ec"/>
  <path d="M68 116c-19 0-34-5-34-12s15-12 34-12 34 5 34 12-15 12-34 12z" fill="none" stroke="#5382a1" stroke-width="8"/>
  <path d="M67 82c16-9-10-19 1-34 5-7 13-12 20-18-4 12-14 17-9 28 5 12 18 18-12 24z" fill="#f89820"/>
  <path d="M91 90c7 3 13 8 13 14 0 14-28 24-62 17" fill="none" stroke="#5382a1" stroke-width="7" stroke-linecap="round"/>
  <text x="96" y="62" font-family="Arial, Helvetica, sans-serif" font-size="34" font-weight="700" fill="#c71f37">M</text>
</svg>