<svg xmlns="http://www.w3.org/2000/svg" viewBox="0 0 160 160" role="img" aria-label="Python">
  <rect width="160" height="160" rx="28" fill="#eef5fb"/>
  <path d="M80 24c-25 0-34 8-34 24v14h38v8H35c-16 0-27 10-27 31s11 35 27 35h18v-20c0-17 13-30 31-30h34c14 0 26-11 26-25V48c0-16-13-24-34-24H80zm-18 17a9 9 0 1 1 0 18 9 9 0 0 1 0-18z" fill="#3776ab"/>
  <path d="M80 136c25 0 34-8 34-24V98H76v-8h49c16 0 27-10 27-31s-11-35-27-35h-18v20c0 17-13 30-31 30H42c-14 0-26 11-26 25v13c0 16 13 24 34 24h30zm18-17a9 9 0 1 1 0-18 9 9 0 0 1 0 18z" fill="#ffd43b"/>
</svg>