<?xml version="1.0" encoding="utf-8"?>
<!-- Generator: Adobe Illustrator 16.0.3, SVG Export Plug-In . SVG Version: 6.00 Build 0)  -->
<!DOCTYPE svg PUBLIC "-//W3C//DTD SVG 1.1//EN" "http://www.w3.org/Graphics/SVG/1.1/DTD/svg11.dtd">
<svg version="1.1" id="Capa_1" xmlns="http://www.w3.org/2000/svg" xmlns:xlink="http://www.w3.org/1999/xlink" x="0px" y="0px"
	 width="330.594px" height="37.315px" viewBox="144.369 320.095 330.594 37.315"
	 enable-background="new 144.369 320.095 330.594 37.315" xml:space="preserve">
<path id="XMLID_3_" fill="#9FAFC6" d="M156.089,350.796c-3.599,0-6.445-1.172-8.539-3.518c-2.095-2.346-3.181-5.44-3.181-9.376
	c0-4.02,1.088-7.198,3.265-9.629c2.177-2.344,5.19-3.516,8.874-3.516c3.016,0,5.441,0.755,7.451,2.26
	c1.926,1.508,3.097,3.518,3.433,6.112h-5.19c-0.168-1.089-0.756-2.01-1.843-2.848c-1.088-0.836-2.26-1.255-3.6-1.255
	c-2.261,0-4.019,0.755-5.274,2.345c-1.256,1.591-1.926,3.684-1.926,6.445c0,2.763,0.586,4.939,1.842,6.361
	c1.253,1.423,3.014,2.178,5.358,2.178l0,0c2.009,0,3.516-0.755,4.688-2.262c0.586-0.837,1.091-1.842,1.342-3.013v-0.086h-5.776
	v-4.27h10.381v13.313h-3.433l-0.5-3.184l-0.335,0.421C161.447,349.708,159.103,350.796,156.089,350.796L156.089,350.796z"/>
<path id="XMLID_5_" fill="#9FAFC6" d="M171.828,331.876h2.26h2.26v3.265c0.168-0.334,0.334-0.671,0.585-1.005
	c1.172-1.841,2.597-2.762,4.356-2.762h1.088v4.938c-0.419-0.083-0.922-0.083-1.425-0.083c-1.507,0-2.595,0.334-3.267,1.089
	c-0.754,0.753-1.088,1.842-1.088,3.35v9.46h-2.429h-2.43v-18.251H171.828L171.828,331.876z"/>
<path id="XMLID_7_" fill="#9FAFC6" d="M190.078,343.345c0,1.087,0.249,1.925,0.753,2.51c0.501,0.503,1.256,0.838,2.178,0.838
	c1.254,0,2.174-0.418,2.93-1.173c0.67-0.754,1.004-1.841,1.004-3.266V331.96h2.429h2.43v18.25h-2.261h-2.261v-2.764
	c-0.168,0.334-0.336,0.67-0.587,0.922c-1.171,1.507-2.93,2.261-5.188,2.261c-1.927,0-3.434-0.586-4.521-1.675
	c-1.089-1.173-1.591-2.679-1.591-4.688v-12.305h2.429h2.43v11.385L190.078,343.345L190.078,343.345z"/>
<path id="XMLID_9_" fill="#9FAFC6" d="M206.153,331.876h2.262h2.26v2.68l0.335-0.42c1.339-1.841,3.014-2.762,5.106-2.762
	c2.344,0,4.187,0.836,5.607,2.596c1.424,1.674,2.094,3.935,2.094,6.78c0,2.93-0.67,5.356-2.094,7.2
	c-1.422,1.84-3.265,2.761-5.607,2.761c-2.095,0-3.852-0.836-5.106-2.51l-0.084-0.167v9.376h-2.429h-2.429v-25.533L206.153,331.876
	L206.153,331.876z M214.859,346.694c1.256,0,2.261-0.503,3.016-1.424c0.753-1.005,1.089-2.345,1.089-4.02
	c0-1.759-0.336-3.097-1.089-4.102c-0.755-1.007-1.76-1.507-3.016-1.507s-2.261,0.5-3.014,1.507c-0.755,1.005-1.09,2.429-1.09,4.271
	c0,1.675,0.335,3.013,1.09,3.934C212.598,346.19,213.603,346.694,214.859,346.694z"/>
<path id="XMLID_12_" fill="#9FAFC6" d="M228.755,348.033c-1.676-1.676-2.511-4.021-2.511-6.949c0-3.016,0.835-5.358,2.511-7.115
	c1.675-1.76,3.937-2.596,6.782-2.596c2.845,0,5.188,0.836,6.863,2.596c1.676,1.757,2.511,4.101,2.511,7.115
	c0,2.93-0.835,5.19-2.511,6.949c-1.675,1.757-3.935,2.595-6.863,2.595C232.692,350.628,230.43,349.791,228.755,348.033z
	 M238.802,345.185c0.754-0.92,1.088-2.344,1.088-4.1c0-1.843-0.334-3.267-1.088-4.188c-0.755-0.921-1.843-1.425-3.265-1.425
	c-1.427,0-2.513,0.502-3.268,1.425c-0.754,0.921-1.089,2.345-1.089,4.188c0,1.84,0.335,3.18,1.089,4.1
	c0.755,0.921,1.841,1.425,3.268,1.425C236.959,346.61,238.049,346.106,238.802,345.185z"/>
<path id="XMLID_15_" fill="#2F2974" d="M279.154,341.503c-0.335,2.846-1.426,5.105-3.349,6.781
	c-1.926,1.674-4.354,2.512-7.367,2.512c-3.432,0-6.194-1.172-8.288-3.518c-2.009-2.346-3.096-5.44-3.096-9.376
	c0-4.02,1.004-7.198,3.096-9.629c2.013-2.344,4.772-3.516,8.288-3.516c2.931,0,5.357,0.755,7.284,2.345
	c1.925,1.591,3.097,3.768,3.432,6.446h-5.189c-0.168-1.34-0.753-2.429-1.76-3.181c-1.006-0.756-2.262-1.174-3.767-1.174
	c-1.926,0-3.432,0.755-4.521,2.263c-1.088,1.506-1.591,3.683-1.591,6.36c0,2.679,0.503,4.688,1.591,6.194
	c1.089,1.507,2.595,2.262,4.521,2.262c1.505,0,2.763-0.421,3.767-1.341c1.007-0.837,1.591-2.094,1.76-3.515h5.189V341.503z"/>
<path id="XMLID_17_" fill="#2F2974" d="M285.182,347.362c-2.176-2.343-3.18-5.44-3.18-9.376c0-4.018,1.088-7.198,3.18-9.627
	c2.176-2.344,5.024-3.515,8.622-3.515c3.684,0,6.53,1.171,8.707,3.515c2.175,2.347,3.18,5.61,3.18,9.627
	c0,3.936-1.09,7.116-3.18,9.376c-2.094,2.263-5.025,3.519-8.707,3.519C290.205,350.796,287.275,349.708,285.182,347.362z
	 M298.742,344.182c1.172-1.506,1.758-3.6,1.758-6.278c0-2.763-0.584-4.855-1.758-6.445c-1.17-1.508-2.847-2.345-4.938-2.345
	s-3.768,0.754-4.938,2.345c-1.172,1.506-1.76,3.683-1.76,6.445c0,2.68,0.585,4.772,1.76,6.278c1.171,1.506,2.847,2.261,4.938,2.261
	S297.572,345.688,298.742,344.182z"/>
<path id="XMLID_20_" fill="#2F2974" d="M309.794,350.127V325.43h2.595h2.595v20.344h12.309v2.178v2.178L309.794,350.127
	L309.794,350.127z"/>
<path id="XMLID_26_" fill="#2F2974" d="M362.198,350.127h-2.429h-2.43V325.43h2.68h2.681l9.879,17.331V325.43h2.43h2.428v24.697
	h-2.594h-2.597l-10.215-17.832v17.832H362.198z"/>
<path id="XMLID_28_" fill="#2F2974" d="M380.7,338.237h9.628v4.521H380.7V338.237z"/>
<path id="XMLID_30_" fill="#2F2974" d="M393.511,325.428h2.595h2.596v24.695h-2.596h-2.595V325.428z"/>
<path id="XMLID_32_" fill="#2F2974" d="M403.472,350.127V325.43h18.166v2.177v2.179H408.66v5.272h12.057v2.095v2.094H408.66v6.446
	h13.563v2.177v2.176h-18.753L403.472,350.127L403.472,350.127z"/>
<path id="XMLID_34_" fill="#2F2974" d="M447.257,341.503c-0.334,2.846-1.423,5.105-3.35,6.781c-1.926,1.674-4.354,2.512-7.367,2.512
	c-3.43,0-6.194-1.172-8.286-3.518c-2.01-2.346-3.098-5.44-3.098-9.376c0-4.02,1.004-7.198,3.098-9.629
	c2.009-2.344,4.771-3.516,8.286-3.516c2.932,0,5.359,0.755,7.285,2.345c1.927,1.591,3.098,3.768,3.432,6.446h-5.19
	c-0.167-1.34-0.753-2.429-1.758-3.181c-1.006-0.756-2.261-1.174-3.769-1.174c-1.925,0-3.43,0.755-4.521,2.263
	c-1.088,1.506-1.591,3.683-1.591,6.36c0,2.679,0.503,4.688,1.591,6.194c1.091,1.507,2.596,2.262,4.521,2.262
	c1.508,0,2.764-0.421,3.769-1.341c1.005-0.837,1.591-2.094,1.758-3.515h5.19V341.503L447.257,341.503z"/>
<path id="XMLID_36_" fill="#2F2974" d="M455.794,350.127h-2.429h-2.429V325.43h3.768h3.769l4.521,19.591l0,0l4.437-19.591h3.767
	h3.767v24.697h-2.429h-2.429v-20.762l0,0l-4.604,20.762h-2.513h-2.51l-4.604-21.182l0,0v21.182H455.794z"/>
<g>
	<path fill="none" stroke="#2F2974" stroke-width="4.6303" stroke-linecap="round" stroke-miterlimit="10" d="M350.024,328.15
		c2.145,2.146,3.472,5.106,3.472,8.378c0,6.544-5.306,11.851-11.85,11.851s-11.849-5.307-11.849-11.851
		c0-3.232,1.297-6.169,3.399-8.307"/>
	
		<line fill="none" stroke="#2F2974" stroke-width="4.6303" stroke-linecap="round" stroke-miterlimit="10" x1="341.648" y1="322.41" x2="341.648" y2="333.892"/>
</g>
</svg>
